<svg version="1.1" viewBox="0.0 0.0 186.5984251968504 100.0" fill="none" stroke="none" stroke-linecap="square" stroke-miterlimit="10" xmlns:xlink="http://www.w3.org/1999/xlink" xmlns="http://www.w3.org/2000/svg"><clipPath id="p.0"><path d="m0 0l186.59842 0l0 100.0l-186.59842 0l0 -100.0z" clip-rule="nonzero"/></clipPath><g clip-path="url(#p.0)"><path fill="#0096dc" d="m0 0l186.59842 0l0 100.0l-186.59842 0z" fill-rule="evenodd"/><path fill="#4db6e7" d="m6.1811023 4.7217846l84.220474 0l0 85.13386l-84.220474 0z" fill-rule="evenodd"/><path fill="#ffffff" d="m21.556103 17.649284l-2.3125 0l0 6.3125l-1.5625 0l0 -6.3125l-2.296875 0l0 -1.265625l6.171875 0l0 1.265625zm2.9258423 6.421875q-1.234375 0 -2.015625 -0.765625q-0.78125 -0.765625 -0.78125 -2.015625l0 -0.15625q0 -0.84375 0.328125 -1.515625q0.328125 -0.671875 0.921875 -1.03125q0.609375 -0.359375 1.375 -0.359375q1.15625 0 1.8125 0.734375q0.671875 0.71875 0.671875 2.0625l0 0.609375l-3.578125 0q0.0625 0.546875 0.421875 0.890625q0.375 0.328125 0.9375 0.328125q0.875 0 1.359375 -0.625l0.734375 0.828125q-0.328125 0.46875 -0.90625 0.75q-0.578125 0.265625 -1.28125 0.265625zm-0.171875 -4.625q-0.453125 0 -0.734375 0.3125q-0.265625 0.296875 -0.34375 0.859375l2.078125 0l0 -0.125q0 -0.5 -0.265625 -0.765625q-0.265625 -0.28125 -0.734375 -0.28125zm5.4787445 0.5625l0.953125 -1.671875l1.609375 0l-1.609375 2.75l1.671875 2.875l-1.609375 0l-1.015625 -1.765625l-0.984375 1.765625l-1.625 0l1.671875 -2.875l-1.59375 -2.75l1.609375 0l0.921875 1.671875zm5.0780334 -3.0625l0 1.390625l0.96875 0l0 1.09375l-0.96875 0l0 2.8125q0 0.3125 0.125 0.453125q0.125 0.125 0.453125 0.125q0.25 0 0.4375 -0.03125l0 1.140625q-0.4375 0.140625 -0.90625 0.140625q-1.578125 0 -1.609375 -1.609375l0 -3.03125l-0.828125 0l0 -1.09375l0.828125 0l0 -1.390625l1.5 0zm8.116272 3.40625q0 1.046875 -0.34375 1.84375q-0.34375 0.78125 -0.953125 1.25l1.265625 0.984375l-1.0 0.890625l-1.609375 -1.296875q-0.28125 0.046875 -0.578125 0.046875q-0.9375 0 -1.6875 -0.453125q-0.734375 -0.453125 -1.140625 -1.296875q-0.40625 -0.84375 -0.40625 -1.9375l0 -0.375q0 -1.109375 0.40625 -1.953125q0.40625 -0.859375 1.140625 -1.3125q0.734375 -0.46875 1.671875 -0.46875q0.953125 0 1.6875 0.46875q0.734375 0.453125 1.140625 1.3125q0.40625 0.84375 0.40625 1.953125l0 0.34375zm-1.578125 -0.34375q0 -1.203125 -0.4375 -1.8125q-0.421875 -0.625 -1.21875 -0.625q-0.78125 0 -1.203125 0.609375q-0.421875 0.609375 -0.4375 1.796875l0 0.375q0 1.15625 0.421875 1.796875q0.4375 0.640625 1.234375 0.640625q0.78125 0 1.203125 -0.609375q0.421875 -0.625 0.4375 -1.8125l0 -0.359375zm5.9980164 3.375q-0.5625 0.6875 -1.546875 0.6875q-0.90625 0 -1.390625 -0.515625q-0.46875 -0.53125 -0.46875 -1.53125l0 -3.6875l1.5 0l0 3.625q0 0.890625 0.796875 0.890625q0.765625 0 1.046875 -0.53125l0 -3.984375l1.515625 0l0 5.625l-1.421875 0l-0.03125 -0.578125zm4.181671 0.578125l-1.515625 0l0 -5.625l1.515625 0l0 5.625zm-1.609375 -7.09375q0 -0.328125 0.21875 -0.546875q0.234375 -0.21875 0.625 -0.21875q0.390625 0 0.609375 0.21875q0.234375 0.21875 0.234375 0.546875q0 0.34375 -0.234375 0.5625q-0.21875 0.21875 -0.609375 0.21875q-0.375 0 -0.609375 -0.21875q-0.234375 -0.21875 -0.234375 -0.5625zm4.575363 5.875l2.75 0l0 1.21875l-4.671875 0l0 -0.921875l2.640625 -3.484375l-2.5625 0l0 -1.21875l4.5 0l0 0.890625l-2.65625 3.515625z" fill-rule="nonzero"/><path fill="#36a9e1" d="m13.708661 33.7979l71.30708 0l0 50.55118l-71.30708 0z" fill-rule="evenodd"/><path fill="#ffffff" d="m22.88693 47.117275q0.515625 0 0.984375 0.265625q0.484375 0.25 0.75 0.734375q0.28125 0.484375 0.28125 1.015625q0 0.828125 -0.59375 1.421875q-0.59375 0.578125 -1.421875 0.578125q-0.828125 0 -1.421875 -0.578125q-0.578125 -0.59375 -0.578125 -1.421875q0 -0.53125 0.265625 -1.015625q0.265625 -0.484375 0.75 -0.734375q0.484375 -0.265625 0.984375 -0.265625z" fill-rule="nonzero"/><path fill="#ffffff" d="m35.005535 49.242275q0 -1.15625 0.515625 -1.828125q0.515625 -0.671875 1.421875 -0.671875q0.796875 0 1.265625 0.609375l0.078125 -0.515625l1.15625 0l0 6.8125l-1.3125 0l0 -2.3125q-0.453125 0.515625 -1.1875 0.515625q-0.890625 0 -1.421875 -0.6875q-0.515625 -0.6875 -0.515625 -1.921875zm1.3125 0.109375q0 0.703125 0.25 1.078125q0.25 0.359375 0.703125 0.359375q0.609375 0 0.859375 -0.484375l0 -2.03125q-0.25 -0.46875 -0.84375 -0.46875q-0.453125 0 -0.71875 0.375q-0.25 0.359375 -0.25 1.171875zm7.1136017 1.90625q-0.484375 0.59375 -1.34375 0.59375q-0.796875 0 -1.21875 -0.453125q-0.40625 -0.453125 -0.421875 -1.34375l0 -3.21875l1.328125 0l0 3.171875q0 0.78125 0.6875 0.78125q0.671875 0 0.921875 -0.46875l0 -3.484375l1.328125 0l0 4.921875l-1.234375 0l-0.046875 -0.5zm4.547867 0.59375q-1.09375 0 -1.78125 -0.65625q-0.671875 -0.671875 -0.671875 -1.78125l0 -0.125q0 -0.75 0.28125 -1.328125q0.296875 -0.59375 0.8125 -0.90625q0.53125 -0.3125 1.203125 -0.3125q1.015625 0 1.59375 0.640625q0.578125 0.625 0.578125 1.796875l0 0.546875l-3.140625 0q0.0625 0.484375 0.390625 0.78125q0.328125 0.28125 0.8125 0.28125q0.765625 0 1.1875 -0.546875l0.65625 0.71875q-0.296875 0.421875 -0.8125 0.65625q-0.5 0.234375 -1.109375 0.234375zm-0.15625 -4.046875q-0.390625 0 -0.640625 0.265625q-0.234375 0.265625 -0.3125 0.75l1.828125 0l0 -0.09375q0 -0.4375 -0.234375 -0.671875q-0.21875 -0.25 -0.640625 -0.25zm5.5889893 2.59375q0 -0.25 -0.234375 -0.375q-0.234375 -0.140625 -0.765625 -0.25q-1.765625 -0.375 -1.765625 -1.5q0 -0.65625 0.546875 -1.09375q0.546875 -0.4375 1.421875 -0.4375q0.9375 0 1.5 0.4375q0.5625 0.4375 0.5625 1.140625l-1.3125 0q0 -0.28125 -0.1875 -0.453125q-0.171875 -0.1875 -0.5625 -0.1875q-0.328125 0 -0.515625 0.15625q-0.1875 0.140625 -0.1875 0.375q0 0.21875 0.203125 0.359375q0.21875 0.125 0.703125 0.234375q0.5 0.09375 0.828125 0.21875q1.046875 0.375 1.046875 1.3125q0 0.671875 -0.578125 1.09375q-0.578125 0.421875 -1.5 0.421875q-0.609375 0 -1.09375 -0.21875q-0.484375 -0.21875 -0.765625 -0.609375q-0.265625 -0.390625 -0.265625 -0.828125l1.25 0q0.015625 0.34375 0.25 0.53125q0.25 0.1875 0.65625 0.1875q0.375 0 0.5625 -0.140625q0.203125 -0.140625 0.203125 -0.375zm3.7024078 -4.78125l0 1.21875l0.84375 0l0 0.953125l-0.84375 0l0 2.46875q0 0.265625 0.109375 0.390625q0.109375 0.109375 0.40625 0.109375q0.21875 0 0.375 -0.03125l0 1.0q-0.375 0.125 -0.796875 0.125q-1.375 0 -1.40625 -1.40625l0 -2.65625l-0.71875 0l0 -0.953125l0.71875 0l0 -1.21875l1.3125 0zm2.964386 6.140625l-1.3125 0l0 -4.921875l1.3125 0l0 4.921875zm-1.390625 -6.203125q0 -0.296875 0.1875 -0.484375q0.203125 -0.1875 0.546875 -0.1875q0.34375 0 0.53125 0.1875q0.203125 0.1875 0.203125 0.484375q0 0.296875 -0.203125 0.5q-0.203125 0.1875 -0.53125 0.1875q-0.328125 0 -0.53125 -0.1875q-0.203125 -0.203125 -0.203125 -0.5zm2.270111 3.6875q0 -0.734375 0.28125 -1.296875q0.28125 -0.578125 0.8125 -0.890625q0.53125 -0.3125 1.234375 -0.3125q1.0000038 0 1.6250038 0.609375q0.640625 0.609375 0.703125 1.65625l0.015625 0.34375q0 1.125 -0.640625 1.8125q-0.625 0.6875 -1.6875038 0.6875q-1.0625 0 -1.703125 -0.6875q-0.640625 -0.6875 -0.640625 -1.859375l0 -0.0625zm1.3125 0.109375q0 0.6875 0.265625 1.0625q0.265625 0.375 0.765625 0.375q0.46875 0 0.7343788 -0.359375q0.28125 -0.375 0.28125 -1.1875q0 -0.6875 -0.28125 -1.0625q-0.2656288 -0.375 -0.7500038 -0.375q-0.484375 0 -0.75 0.375q-0.265625 0.375 -0.265625 1.171875zm5.3837776 -2.515625l0.046875 0.5625q0.515625 -0.65625 1.40625 -0.65625q0.78125 0 1.15625 0.46875q0.390625 0.453125 0.40625 1.359375l0 3.1875l-1.3125 0l0 -3.15625q0 -0.421875 -0.1875 -0.609375q-0.1875 -0.1875 -0.609375 -0.1875q-0.546875 0 -0.828125 0.484375l0 3.46875l-1.3125 0l0 -4.921875l1.234375 0z" fill-rule="nonzero"/><path fill="#ffffff" d="m22.88693 58.117275q0.515625 0 0.984375 0.265625q0.484375 0.25 0.75 0.734375q0.28125 0.484375 0.28125 1.015625q0 0.828125 -0.59375 1.421875q-0.59375 0.578125 -1.421875 0.578125q-0.828125 0 -1.421875 -0.578125q-0.578125 -0.59375 -0.578125 -1.421875q0 -0.53125 0.265625 -1.015625q0.265625 -0.484375 0.75 -0.734375q0.484375 -0.265625 0.984375 -0.265625z" fill-rule="nonzero"/><path fill="#ffffff" d="m38.068035 62.7579q-0.09375 -0.171875 -0.125 -0.4375q-0.484375 0.53125 -1.25 0.53125q-0.71875 0 -1.203125 -0.421875q-0.46875 -0.421875 -0.46875 -1.0625q0 -0.78125 0.578125 -1.1875q0.578125 -0.421875 1.671875 -0.4375l0.609375 0l0 -0.28125q0 -0.34375 -0.171875 -0.546875q-0.171875 -0.203125 -0.546875 -0.203125q-0.34375 0 -0.53125 0.171875q-0.1875 0.15625 -0.1875 0.421875l-1.3125 0q0 -0.421875 0.265625 -0.78125q0.265625 -0.375 0.734375 -0.578125q0.484375 -0.203125 1.09375 -0.203125q0.90625 0 1.4375 0.453125q0.546875 0.453125 0.546875 1.28125l0 2.140625q0 0.703125 0.1875 1.0625l0 0.078125l-1.328125 0zm-1.09375 -0.921875q0.296875 0 0.546875 -0.125q0.25 -0.125 0.359375 -0.34375l0 -0.84375l-0.484375 0q-1.0 0 -1.0625 0.671875l0 0.078125q0 0.25 0.171875 0.40625q0.171875 0.15625 0.46875 0.15625zm4.454239 -4.0l0.046875 0.5625q0.515625 -0.65625 1.40625 -0.65625q0.78125 0 1.15625 0.46875q0.390625 0.453125 0.40625 1.359375l0 3.1875l-1.3125 0l0 -3.15625q0 -0.421875 -0.1875 -0.609375q-0.1875 -0.1875 -0.609375 -0.1875q-0.546875 0 -0.828125 0.484375l0 3.46875l-1.3125 0l0 -4.921875l1.234375 0zm6.677429 3.5625q0 -0.25 -0.234375 -0.375q-0.234375 -0.140625 -0.765625 -0.25q-1.765625 -0.375 -1.765625 -1.5q0 -0.65625 0.546875 -1.09375q0.546875 -0.4375 1.421875 -0.4375q0.9375 0 1.5 0.4375q0.5625 0.4375 0.5625 1.140625l-1.3125 0q0 -0.28125 -0.1875 -0.453125q-0.171875 -0.1875 -0.5625 -0.1875q-0.328125 0 -0.515625 0.15625q-0.1875 0.140625 -0.1875 0.375q0 0.21875 0.203125 0.359375q0.21875 0.125 0.703125 0.234375q0.5 0.09375 0.828125 0.21875q1.046875 0.375 1.046875 1.3125q0 0.671875 -0.578125 1.09375q-0.578125 0.421875 -1.5 0.421875q-0.609375 0 -1.09375 -0.21875q-0.484375 -0.21875 -0.765625 -0.609375q-0.265625 -0.390625 -0.265625 -0.828125l1.25 0q0.015625 0.34375 0.25 0.53125q0.25 0.1875 0.65625 0.1875q0.375 0 0.5625 -0.140625q0.203125 -0.140625 0.203125 -0.375zm6.421158 -0.4375l0.640625 -3.125l1.265625 0l-1.25 4.921875l-1.109375 0l-0.921875 -3.109375l-0.9375 3.109375l-1.09375 0l-1.265625 -4.921875l1.265625 0l0.65625 3.125l0.890625 -3.125l0.953125 0l0.90625 3.125zm4.839279 1.890625q-1.09375 0 -1.78125 -0.65625q-0.671875 -0.671875 -0.671875 -1.78125l0 -0.125q0 -0.75 0.28125 -1.328125q0.296875 -0.59375 0.8125 -0.90625q0.53125 -0.3125 1.203125 -0.3125q1.015625 0 1.59375 0.640625q0.578125 0.625 0.578125 1.796875l0 0.546875l-3.140625 0q0.0625 0.484375 0.390625 0.78125q0.328125 0.28125 0.8125 0.28125q0.765625 0 1.1875 -0.546875l0.65625 0.71875q-0.296875 0.421875 -0.8125 0.65625q-0.5 0.234375 -1.109375 0.234375zm-0.15625 -4.046875q-0.390625 0 -0.640625 0.265625q-0.234375 0.265625 -0.3125 0.75l1.828125 0l0 -0.09375q0 -0.4375 -0.234375 -0.671875q-0.21875 -0.25 -0.640625 -0.25zm5.698368 0.265625q-0.28125 -0.046875 -0.484375 -0.046875q-0.7500038 0 -0.9687538 0.515625l0 3.21875l-1.328125 0l0 -4.921875l1.25 0l0.03125 0.578125q0.40625 -0.671875 1.1093788 -0.671875q0.21875 0 0.40625 0.0625l-0.015625 1.265625zm3.2930298 2.328125q0 -0.25 -0.234375 -0.375q-0.234375 -0.140625 -0.765625 -0.25q-1.765625 -0.375 -1.765625 -1.5q0 -0.65625 0.546875 -1.09375q0.546875 -0.4375 1.421875 -0.4375q0.9375 0 1.5 0.4375q0.5625 0.4375 0.5625 1.140625l-1.3125 0q0 -0.28125 -0.1875 -0.453125q-0.171875 -0.1875 -0.5625 -0.1875q-0.328125 0 -0.515625 0.15625q-0.1875 0.140625 -0.1875 0.375q0 0.21875 0.203125 0.359375q0.21875 0.125 0.703125 0.234375q0.5 0.09375 0.828125 0.21875q1.046875 0.375 1.046875 1.3125q0 0.671875 -0.578125 1.09375q-0.578125 0.421875 -1.5 0.421875q-0.609375 0 -1.09375 -0.21875q-0.484375 -0.21875 -0.765625 -0.609375q-0.265625 -0.390625 -0.265625 -0.828125l1.25 0q0.015625 0.34375 0.25 0.53125q0.25 0.1875 0.65625 0.1875q0.375 0 0.5625 -0.140625q0.203125 -0.140625 0.203125 -0.375z" fill-rule="nonzero"/><path fill="#ffffff" d="m22.88693 69.11727q0.515625 0 0.984375 0.265625q0.484375 0.25 0.75 0.734375q0.28125 0.484375 0.28125 1.015625q0 0.828125 -0.59375 1.421875q-0.59375 0.578125 -1.421875 0.578125q-0.828125 0 -1.421875 -0.578125q-0.578125 -0.59375 -0.578125 -1.421875q0 -0.53125 0.265625 -1.015625q0.265625 -0.484375 0.75 -0.734375q0.484375 -0.265625 0.984375 -0.265625z" fill-rule="nonzero"/><path fill="#ffffff" d="m35.005535 71.2579q0 -1.15625 0.515625 -1.828125q0.515625 -0.6875 1.421875 -0.6875q0.71875 0 1.1875 0.53125l0 -2.515625l1.3125 0l0 7.0l-1.1875 0l-0.0625 -0.53125q-0.484375 0.625 -1.265625 0.625q-0.859375 0 -1.390625 -0.6875q-0.53125 -0.6875 -0.53125 -1.90625zm1.3125 0.09375q0 0.6875 0.234375 1.0625q0.25 0.375 0.71875 0.375q0.609375 0 0.859375 -0.515625l0 -1.953125q-0.25 -0.515625 -0.859375 -0.515625q-0.953125 0 -0.953125 1.546875zm5.53743 2.40625l-1.3125 0l0 -4.921875l1.3125 0l0 4.921875zm-1.390625 -6.203125q0 -0.296875 0.1875 -0.484375q0.203125 -0.1875 0.546875 -0.1875q0.34375 0 0.53125 0.1875q0.203125 0.1875 0.203125 0.484375q0 0.296875 -0.203125 0.5q-0.203125 0.1875 -0.53125 0.1875q-0.328125 0 -0.53125 -0.1875q-0.203125 -0.203125 -0.203125 -0.5zm2.832611 6.203125l0 -3.96875l-0.734375 0l0 -0.953125l0.734375 0l0 -0.421875q0 -0.828125 0.46875 -1.28125q0.484375 -0.46875 1.34375 -0.46875q0.28125 0 0.671875 0.09375l-0.015625 1.015625q-0.15625 -0.03125 -0.40625 -0.03125q-0.734375 0 -0.734375 0.6875l0 0.40625l1.625 0l0 -0.234375q0 -0.921875 0.5625 -1.421875q0.5625 -0.515625 1.59375 -0.515625q0.609375 0 1.5 0.265625l-0.1875 1.09375q-0.453125 -0.125 -0.703125 -0.15625q-0.25 -0.046875 -0.53125 -0.046875q-0.921875 0 -0.921875 0.8125l0 0.203125l0.96875 0l0 0.953125l-0.96875 0l0 3.96875l-1.3125 0l0 -3.96875l-1.625 0l0 3.96875l-1.328125 0zm7.21875 0l-1.328125 0l0 -4.921875l1.328125 0l0 4.921875zm3.1429596 -0.96875q0.359375 0 0.578125 -0.203125q0.234375 -0.203125 0.25 -0.53125l1.234375 0q-0.015625 0.5 -0.28125 0.921875q-0.265625 0.40625 -0.734375 0.640625q-0.46875 0.234375 -1.03125 0.234375q-1.0625 0 -1.671875 -0.671875q-0.609375 -0.671875 -0.609375 -1.859375l0 -0.078125q0 -1.140625 0.609375 -1.8125q0.609375 -0.6875 1.65625 -0.6875q0.9375 0 1.484375 0.53125q0.5625 0.515625 0.578125 1.390625l-1.234375 0q-0.015625 -0.375 -0.25 -0.609375q-0.21875 -0.25 -0.59375 -0.25q-0.453125 0 -0.703125 0.34375q-0.234375 0.328125 -0.234375 1.078125l0 0.140625q0 0.75 0.234375 1.09375q0.234375 0.328125 0.71875 0.328125zm5.7550964 0.46875q-0.484375 0.59375 -1.34375 0.59375q-0.796875 0 -1.21875 -0.453125q-0.40625 -0.453125 -0.421875 -1.34375l0 -3.21875l1.328125 0l0 3.171875q0 0.78125 0.6875 0.78125q0.671875 0 0.921875 -0.46875l0 -3.484375l1.328125 0l0 4.921875l-1.234375 0l-0.046875 -0.5zm3.6572418 0.5l-1.3125 0l0 -7.0l1.3125 0l0 7.0zm2.66074 -6.140625l0 1.21875l0.84375 0l0 0.953125l-0.84375 0l0 2.46875q0 0.265625 0.109375 0.390625q0.109375 0.109375 0.40625 0.109375q0.21875 0 0.375 -0.03125l0 1.0q-0.375 0.125 -0.796875 0.125q-1.375 0 -1.40625 -1.40625l0 -2.65625l-0.7187538 0l0 -0.953125l0.7187538 0l0 -1.21875l1.3125 0zm3.417511 4.28125l0.90625 -3.0625l1.421875 0l-1.984375 5.6875l-0.109375 0.265625q-0.4375 0.953125 -1.453125 0.953125q-0.296875 0 -0.59375 -0.078125l0 -1.0l0.203125 0q0.375 0 0.5625 -0.109375q0.1875 -0.109375 0.28125 -0.375l0.15625 -0.40625l-1.71875 -4.9375l1.421875 0l0.90625 3.0625z" fill-rule="nonzero"/><path fill="#4db6e7" d="m98.07087 4.7217846l84.22047 0l0 85.13386l-84.22047 0z" fill-rule="evenodd"/><path fill="#ffffff" d="m109.41462 23.961784l-1.5625 0l0 -7.578125l1.5625 0l0 7.578125zm2.7469635 -5.625l0.046875 0.625q0.609375 -0.734375 1.625 -0.734375q1.078125 0 1.484375 0.859375q0.59375 -0.859375 1.703125 -0.859375q0.90625 0 1.34375 0.53125q0.453125 0.53125 0.453125 1.609375l0 3.59375l-1.5 0l0 -3.59375q0 -0.46875 -0.1875 -0.6875q-0.1875 -0.234375 -0.65625 -0.234375q-0.6875 0 -0.9375 0.65625l0 3.859375l-1.5 0l0 -3.578125q0 -0.5 -0.203125 -0.71875q-0.1875 -0.21875 -0.65625 -0.21875q-0.625 0 -0.921875 0.53125l0 3.984375l-1.5 0l0 -5.625l1.40625 0zm11.084732 5.625q-0.109375 -0.203125 -0.15625 -0.5q-0.546875 0.609375 -1.421875 0.609375q-0.828125 0 -1.375 -0.484375q-0.53125 -0.484375 -0.53125 -1.203125q0 -0.90625 0.65625 -1.375q0.671875 -0.484375 1.921875 -0.484375l0.6875 0l0 -0.328125q0 -0.390625 -0.203125 -0.625q-0.203125 -0.234375 -0.625 -0.234375q-0.375 0 -0.59375 0.1875q-0.21875 0.1875 -0.21875 0.5l-1.5 0q0 -0.484375 0.296875 -0.90625q0.296875 -0.421875 0.84375 -0.65625q0.5625 -0.234375 1.25 -0.234375q1.03125 0 1.640625 0.53125q0.625 0.515625 0.625 1.46875l0 2.4375q0 0.796875 0.21875 1.203125l0 0.09375l-1.515625 0zm-1.25 -1.046875q0.328125 0 0.609375 -0.140625q0.28125 -0.15625 0.421875 -0.40625l0 -0.96875l-0.5625 0q-1.125 0 -1.203125 0.78125l0 0.09375q0 0.28125 0.1875 0.46875q0.203125 0.171875 0.546875 0.171875zm3.4787903 -1.8125q0 -1.296875 0.609375 -2.078125q0.625 -0.796875 1.671875 -0.796875q0.9218674 0 1.4374924 0.640625l0.0625 -0.53125l1.359375 0l0 5.4375q0 0.734375 -0.34375 1.28125q-0.328125 0.546875 -0.9375 0.828125q-0.609375 0.296875 -1.4218674 0.296875q-0.609375 0 -1.203125 -0.25q-0.59375 -0.25 -0.890625 -0.640625l0.671875 -0.90625q0.5625 0.625 1.359375 0.625q0.5937424 0 0.9218674 -0.328125q0.34375 -0.3125 0.34375 -0.90625l0 -0.296875q-0.53125 0.59375 -1.3749924 0.59375q-1.015625 0 -1.640625 -0.796875q-0.625 -0.796875 -0.625 -2.109375l0 -0.0625zm1.5 0.109375q0 0.765625 0.3125 1.203125q0.3125 0.4375 0.8437424 0.4375q0.6875 0 0.984375 -0.515625l0 -2.375q-0.3125 -0.515625 -0.984375 -0.515625q-0.5312424 0 -0.8437424 0.453125q-0.3125 0.4375 -0.3125 1.3125zm7.395088 2.859375q-1.234375 0 -2.015625 -0.765625q-0.78125 -0.765625 -0.78125 -2.015625l0 -0.15625q0 -0.84375 0.328125 -1.515625q0.328125 -0.671875 0.921875 -1.03125q0.609375 -0.359375 1.375 -0.359375q1.15625 0 1.8125 0.734375q0.671875 0.71875 0.671875 2.0625l0 0.609375l-3.578125 0q0.0625 0.546875 0.421875 0.890625q0.375 0.328125 0.9375 0.328125q0.875 0 1.359375 -0.625l0.734375 0.828125q-0.328125 0.46875 -0.90625 0.75q-0.578125 0.265625 -1.28125 0.265625zm-0.171875 -4.625q-0.453125 0 -0.734375 0.3125q-0.265625 0.296875 -0.34375 0.859375l2.078125 0l0 -0.125q0 -0.5 -0.265625 -0.765625q-0.265625 -0.28125 -0.734375 -0.28125zm9.6506195 0.90625q0 1.046875 -0.34375 1.84375q-0.34375 0.78125 -0.953125 1.25l1.265625 0.984375l-1.0 0.890625l-1.609375 -1.296875q-0.28125 0.046875 -0.578125 0.046875q-0.9375 0 -1.6875 -0.453125q-0.734375 -0.453125 -1.140625 -1.296875q-0.40625 -0.84375 -0.40625 -1.9375l0 -0.375q0 -1.109375 0.40625 -1.953125q0.40625 -0.859375 1.140625 -1.3125q0.734375 -0.46875 1.671875 -0.46875q0.953125 0 1.6875 0.46875q0.734375 0.453125 1.140625 1.3125q0.40625 0.84375 0.40625 1.953125l0 0.34375zm-1.578125 -0.34375q0 -1.203125 -0.4375 -1.8125q-0.421875 -0.625 -1.21875 -0.625q-0.78125 0 -1.203125 0.609375q-0.421875 0.609375 -0.4375 1.796875l0 0.375q0 1.15625 0.421875 1.796875q0.4375 0.640625 1.234375 0.640625q0.78125 0 1.203125 -0.609375q0.421875 -0.625 0.4375 -1.8125l0 -0.359375zm5.9980164 3.375q-0.5625 0.6875 -1.546875 0.6875q-0.90625 0 -1.390625 -0.515625q-0.46875 -0.53125 -0.46875 -1.53125l0 -3.6875l1.5 0l0 3.625q0 0.890625 0.796875 0.890625q0.765625 0 1.046875 -0.53125l0 -3.984375l1.515625 0l0 5.625l-1.421875 0l-0.03125 -0.578125zm4.181671 0.578125l-1.515625 0l0 -5.625l1.515625 0l0 5.625zm-1.609375 -7.09375q0 -0.328125 0.21875 -0.546875q0.234375 -0.21875 0.625 -0.21875q0.390625 0 0.609375 0.21875q0.234375 0.21875 0.234375 0.546875q0 0.34375 -0.234375 0.5625q-0.21875 0.21875 -0.609375 0.21875q-0.375 0 -0.609375 -0.21875q-0.234375 -0.21875 -0.234375 -0.5625zm4.575363 5.875l2.75 0l0 1.21875l-4.671875 0l0 -0.921875l2.640625 -3.484375l-2.5625 0l0 -1.21875l4.5 0l0 0.890625l-2.65625 3.515625z" fill-rule="nonzero"/><path fill="#36a9e1" d="m105.59843 33.7979l71.30709 0l0 50.55118l-71.30709 0z" fill-rule="evenodd"/><path fill="#ffffff" d="m114.776695 47.117275q0.515625 0 0.984375 0.265625q0.484375 0.25 0.75 0.734375q0.28125 0.484375 0.28125 1.015625q0 0.828125 -0.59375 1.421875q-0.59375 0.578125 -1.421875 0.578125q-0.828125 0 -1.421875 -0.578125q-0.578125 -0.59375 -0.578125 -1.421875q0 -0.53125 0.265625 -1.015625q0.265625 -0.484375 0.75 -0.734375q0.484375 -0.265625 0.984375 -0.265625z" fill-rule="nonzero"/><path fill="#ffffff" d="m126.8953 49.242275q0 -1.15625 0.515625 -1.828125q0.515625 -0.671875 1.4218674 -0.671875q0.796875 0 1.265625 0.609375l0.078125 -0.515625l1.15625 0l0 6.8125l-1.3125 0l0 -2.3125q-0.453125 0.515625 -1.1875 0.515625q-0.8906174 0 -1.4218674 -0.6875q-0.515625 -0.6875 -0.515625 -1.921875zm1.3124924 0.109375q0 0.703125 0.25 1.078125q0.25 0.359375 0.703125 0.359375q0.609375 0 0.859375 -0.484375l0 -2.03125q-0.25 -0.46875 -0.84375 -0.46875q-0.453125 0 -0.71875 0.375q-0.25 0.359375 -0.25 1.171875zm7.1136017 1.90625q-0.484375 0.59375 -1.34375 0.59375q-0.796875 0 -1.21875 -0.453125q-0.40625 -0.453125 -0.421875 -1.34375l0 -3.21875l1.328125 0l0 3.171875q0 0.78125 0.6875 0.78125q0.671875 0 0.921875 -0.46875l0 -3.484375l1.328125 0l0 4.921875l-1.234375 0l-0.046875 -0.5zm4.547867 0.59375q-1.09375 0 -1.78125 -0.65625q-0.671875 -0.671875 -0.671875 -1.78125l0 -0.125q0 -0.75 0.28125 -1.328125q0.296875 -0.59375 0.8125 -0.90625q0.53125 -0.3125 1.203125 -0.3125q1.015625 0 1.59375 0.640625q0.578125 0.625 0.578125 1.796875l0 0.546875l-3.140625 0q0.0625 0.484375 0.390625 0.78125q0.328125 0.28125 0.8125 0.28125q0.765625 0 1.1875 -0.546875l0.65625 0.71875q-0.296875 0.421875 -0.8125 0.65625q-0.5 0.234375 -1.109375 0.234375zm-0.15625 -4.046875q-0.390625 0 -0.640625 0.265625q-0.234375 0.265625 -0.3125 0.75l1.828125 0l0 -0.09375q0 -0.4375 -0.234375 -0.671875q-0.21875 -0.25 -0.640625 -0.25zm5.5889893 2.59375q0 -0.25 -0.234375 -0.375q-0.234375 -0.140625 -0.765625 -0.25q-1.765625 -0.375 -1.765625 -1.5q0 -0.65625 0.546875 -1.09375q0.546875 -0.4375 1.421875 -0.4375q0.9375 0 1.5 0.4375q0.5625 0.4375 0.5625 1.140625l-1.3125 0q0 -0.28125 -0.1875 -0.453125q-0.171875 -0.1875 -0.5625 -0.1875q-0.328125 0 -0.515625 0.15625q-0.1875 0.140625 -0.1875 0.375q0 0.21875 0.203125 0.359375q0.21875 0.125 0.703125 0.234375q0.5 0.09375 0.828125 0.21875q1.046875 0.375 1.046875 1.3125q0 0.671875 -0.578125 1.09375q-0.578125 0.421875 -1.5 0.421875q-0.609375 0 -1.09375 -0.21875q-0.484375 -0.21875 -0.765625 -0.609375q-0.265625 -0.390625 -0.265625 -0.828125l1.25 0q0.015625 0.34375 0.25 0.53125q0.25 0.1875 0.65625 0.1875q0.375 0 0.5625 -0.140625q0.203125 -0.140625 0.203125 -0.375zm3.7024078 -4.78125l0 1.21875l0.84375 0l0 0.953125l-0.84375 0l0 2.46875q0 0.265625 0.109375 0.390625q0.109375 0.109375 0.40625 0.109375q0.21875 0 0.375 -0.03125l0 1.0q-0.375 0.125 -0.796875 0.125q-1.375 0 -1.40625 -1.40625l0 -2.65625l-0.71875 0l0 -0.953125l0.71875 0l0 -1.21875l1.3125 0zm2.964386 6.140625l-1.3125 0l0 -4.921875l1.3125 0l0 4.921875zm-1.390625 -6.203125q0 -0.296875 0.1875 -0.484375q0.203125 -0.1875 0.546875 -0.1875q0.34375 0 0.53125 0.1875q0.203125 0.1875 0.203125 0.484375q0 0.296875 -0.203125 0.5q-0.203125 0.1875 -0.53125 0.1875q-0.328125 0 -0.53125 -0.1875q-0.203125 -0.203125 -0.203125 -0.5zm2.270111 3.6875q0 -0.734375 0.28125 -1.296875q0.28125 -0.578125 0.8125 -0.890625q0.53125 -0.3125 1.234375 -0.3125q1.0 0 1.625 0.609375q0.640625 0.609375 0.703125 1.65625l0.015625 0.34375q0 1.125 -0.640625 1.8125q-0.625 0.6875 -1.6875 0.6875q-1.0625 0 -1.703125 -0.6875q-0.640625 -0.6875 -0.640625 -1.859375l0 -0.0625zm1.3125 0.109375q0 0.6875 0.265625 1.0625q0.265625 0.375 0.765625 0.375q0.46875 0 0.734375 -0.359375q0.28125 -0.375 0.28125 -1.1875q0 -0.6875 -0.28125 -1.0625q-0.265625 -0.375 -0.75 -0.375q-0.484375 0 -0.75 0.375q-0.265625 0.375 -0.265625 1.171875zm5.383774 -2.515625l0.046875 0.5625q0.515625 -0.65625 1.40625 -0.65625q0.78125 0 1.15625 0.46875q0.390625 0.453125 0.40625 1.359375l0 3.1875l-1.3125 0l0 -3.15625q0 -0.421875 -0.1875 -0.609375q-0.1875 -0.1875 -0.609375 -0.1875q-0.546875 0 -0.828125 0.484375l0 3.46875l-1.3125 0l0 -4.921875l1.234375 0z" fill-rule="nonzero"/><path fill="#ffffff" d="m114.776695 58.117275q0.515625 0 0.984375 0.265625q0.484375 0.25 0.75 0.734375q0.28125 0.484375 0.28125 1.015625q0 0.828125 -0.59375 1.421875q-0.59375 0.578125 -1.421875 0.578125q-0.828125 0 -1.421875 -0.578125q-0.578125 -0.59375 -0.578125 -1.421875q0 -0.53125 0.265625 -1.015625q0.265625 -0.484375 0.75 -0.734375q0.484375 -0.265625 0.984375 -0.265625z" fill-rule="nonzero"/><path fill="#ffffff" d="m129.9578 62.7579q-0.09375 -0.171875 -0.125 -0.4375q-0.484375 0.53125 -1.25 0.53125q-0.7187424 0 -1.2031174 -0.421875q-0.46875 -0.421875 -0.46875 -1.0625q0 -0.78125 0.578125 -1.1875q0.5781174 -0.421875 1.6718674 -0.4375l0.609375 0l0 -0.28125q0 -0.34375 -0.171875 -0.546875q-0.171875 -0.203125 -0.546875 -0.203125q-0.34375 0 -0.53125 0.171875q-0.1875 0.15625 -0.1875 0.421875l-1.3124924 0q0 -0.421875 0.265625 -0.78125q0.265625 -0.375 0.7343674 -0.578125q0.484375 -0.203125 1.09375 -0.203125q0.90625 0 1.4375 0.453125q0.546875 0.453125 0.546875 1.28125l0 2.140625q0 0.703125 0.1875 1.0625l0 0.078125l-1.328125 0zm-1.09375 -0.921875q0.296875 0 0.546875 -0.125q0.25 -0.125 0.359375 -0.34375l0 -0.84375l-0.484375 0q-1.0 0 -1.0625 0.671875l0 0.078125q0 0.25 0.171875 0.40625q0.171875 0.15625 0.46875 0.15625zm4.454239 -4.0l0.046875 0.5625q0.515625 -0.65625 1.40625 -0.65625q0.78125 0 1.15625 0.46875q0.390625 0.453125 0.40625 1.359375l0 3.1875l-1.3125 0l0 -3.15625q0 -0.421875 -0.1875 -0.609375q-0.1875 -0.1875 -0.609375 -0.1875q-0.546875 0 -0.828125 0.484375l0 3.46875l-1.3125 0l0 -4.921875l1.234375 0zm6.677429 3.5625q0 -0.25 -0.234375 -0.375q-0.234375 -0.140625 -0.765625 -0.25q-1.765625 -0.375 -1.765625 -1.5q0 -0.65625 0.546875 -1.09375q0.546875 -0.4375 1.421875 -0.4375q0.9375 0 1.5 0.4375q0.5625 0.4375 0.5625 1.140625l-1.3125 0q0 -0.28125 -0.1875 -0.453125q-0.171875 -0.1875 -0.5625 -0.1875q-0.328125 0 -0.515625 0.15625q-0.1875 0.140625 -0.1875 0.375q0 0.21875 0.203125 0.359375q0.21875 0.125 0.703125 0.234375q0.5 0.09375 0.828125 0.21875q1.046875 0.375 1.046875 1.3125q0 0.671875 -0.578125 1.09375q-0.578125 0.421875 -1.5 0.421875q-0.609375 0 -1.09375 -0.21875q-0.484375 -0.21875 -0.765625 -0.609375q-0.265625 -0.390625 -0.265625 -0.828125l1.25 0q0.015625 0.34375 0.25 0.53125q0.25 0.1875 0.65625 0.1875q0.375 0 0.5625 -0.140625q0.203125 -0.140625 0.203125 -0.375zm6.421158 -0.4375l0.640625 -3.125l1.265625 0l-1.25 4.921875l-1.109375 0l-0.921875 -3.109375l-0.9375 3.109375l-1.09375 0l-1.265625 -4.921875l1.265625 0l0.65625 3.125l0.890625 -3.125l0.953125 0l0.90625 3.125zm4.839279 1.890625q-1.09375 0 -1.78125 -0.65625q-0.671875 -0.671875 -0.671875 -1.78125l0 -0.125q0 -0.75 0.28125 -1.328125q0.296875 -0.59375 0.8125 -0.90625q0.53125 -0.3125 1.203125 -0.3125q1.015625 0 1.59375 0.640625q0.578125 0.625 0.578125 1.796875l0 0.546875l-3.140625 0q0.0625 0.484375 0.390625 0.78125q0.328125 0.28125 0.8125 0.28125q0.765625 0 1.1875 -0.546875l0.65625 0.71875q-0.296875 0.421875 -0.8125 0.65625q-0.5 0.234375 -1.109375 0.234375zm-0.15625 -4.046875q-0.390625 0 -0.640625 0.265625q-0.234375 0.265625 -0.3125 0.75l1.828125 0l0 -0.09375q0 -0.4375 -0.234375 -0.671875q-0.21875 -0.25 -0.640625 -0.25zm5.6983643 0.265625q-0.28125 -0.046875 -0.484375 -0.046875q-0.75 0 -0.96875 0.515625l0 3.21875l-1.328125 0l0 -4.921875l1.25 0l0.03125 0.578125q0.40625 -0.671875 1.109375 -0.671875q0.21875 0 0.40625 0.0625l-0.015625 1.265625zm3.2930298 2.328125q0 -0.25 -0.234375 -0.375q-0.234375 -0.140625 -0.765625 -0.25q-1.765625 -0.375 -1.765625 -1.5q0 -0.65625 0.546875 -1.09375q0.546875 -0.4375 1.421875 -0.4375q0.9375 0 1.5 0.4375q0.5625 0.4375 0.5625 1.140625l-1.3125 0q0 -0.28125 -0.1875 -0.453125q-0.171875 -0.1875 -0.5625 -0.1875q-0.328125 0 -0.515625 0.15625q-0.1875 0.140625 -0.1875 0.375q0 0.21875 0.203125 0.359375q0.21875 0.125 0.703125 0.234375q0.5 0.09375 0.828125 0.21875q1.046875 0.375 1.046875 1.3125q0 0.671875 -0.578125 1.09375q-0.578125 0.421875 -1.5 0.421875q-0.609375 0 -1.09375 -0.21875q-0.484375 -0.21875 -0.765625 -0.609375q-0.265625 -0.390625 -0.265625 -0.828125l1.25 0q0.015625 0.34375 0.25 0.53125q0.25 0.1875 0.65625 0.1875q0.375 0 0.5625 -0.140625q0.203125 -0.140625 0.203125 -0.375z" fill-rule="nonzero"/><path fill="#ffffff" d="m114.776695 69.11727q0.515625 0 0.984375 0.265625q0.484375 0.25 0.75 0.734375q0.28125 0.484375 0.28125 1.015625q0 0.828125 -0.59375 1.421875q-0.59375 0.578125 -1.421875 0.578125q-0.828125 0 -1.421875 -0.578125q-0.578125 -0.59375 -0.578125 -1.421875q0 -0.53125 0.265625 -1.015625q0.265625 -0.484375 0.75 -0.734375q0.484375 -0.265625 0.984375 -0.265625z" fill-rule="nonzero"/><path fill="#ffffff" d="m126.8953 71.2579q0 -1.15625 0.515625 -1.828125q0.515625 -0.6875 1.4218674 -0.6875q0.71875 0 1.1875 0.53125l0 -2.515625l1.3125 0l0 7.0l-1.1875 0l-0.0625 -0.53125q-0.484375 0.625 -1.265625 0.625q-0.8593674 0 -1.3906174 -0.6875q-0.53125 -0.6875 -0.53125 -1.90625zm1.3124924 0.09375q0 0.6875 0.234375 1.0625q0.25 0.375 0.71875 0.375q0.609375 0 0.859375 -0.515625l0 -1.953125q-0.25 -0.515625 -0.859375 -0.515625q-0.953125 0 -0.953125 1.546875zm5.53743 2.40625l-1.3125 0l0 -4.921875l1.3125 0l0 4.921875zm-1.390625 -6.203125q0 -0.296875 0.1875 -0.484375q0.203125 -0.1875 0.546875 -0.1875q0.34375 0 0.53125 0.1875q0.203125 0.1875 0.203125 0.484375q0 0.296875 -0.203125 0.5q-0.203125 0.1875 -0.53125 0.1875q-0.328125 0 -0.53125 -0.1875q-0.203125 -0.203125 -0.203125 -0.5zm2.832611 6.203125l0 -3.96875l-0.734375 0l0 -0.953125l0.734375 0l0 -0.421875q0 -0.828125 0.46875 -1.28125q0.484375 -0.46875 1.34375 -0.46875q0.28125 0 0.671875 0.09375l-0.015625 1.015625q-0.15625 -0.03125 -0.40625 -0.03125q-0.734375 0 -0.734375 0.6875l0 0.40625l1.625 0l0 -0.234375q0 -0.921875 0.5625 -1.421875q0.5625 -0.515625 1.59375 -0.515625q0.609375 0 1.5 0.265625l-0.1875 1.09375q-0.453125 -0.125 -0.703125 -0.15625q-0.25 -0.046875 -0.53125 -0.046875q-0.921875 0 -0.921875 0.8125l0 0.203125l0.96875 0l0 0.953125l-0.96875 0l0 3.96875l-1.3125 0l0 -3.96875l-1.625 0l0 3.96875l-1.328125 0zm7.21875 0l-1.328125 0l0 -4.921875l1.328125 0l0 4.921875zm3.1429596 -0.96875q0.359375 0 0.578125 -0.203125q0.234375 -0.203125 0.25 -0.53125l1.234375 0q-0.015625 0.5 -0.28125 0.921875q-0.265625 0.40625 -0.734375 0.640625q-0.46875 0.234375 -1.03125 0.234375q-1.0625 0 -1.671875 -0.671875q-0.609375 -0.671875 -0.609375 -1.859375l0 -0.078125q0 -1.140625 0.609375 -1.8125q0.609375 -0.6875 1.65625 -0.6875q0.9375 0 1.484375 0.53125q0.5625 0.515625 0.578125 1.390625l-1.234375 0q-0.015625 -0.375 -0.25 -0.609375q-0.21875 -0.25 -0.59375 -0.25q-0.453125 0 -0.703125 0.34375q-0.234375 0.328125 -0.234375 1.078125l0 0.140625q0 0.75 0.234375 1.09375q0.234375 0.328125 0.71875 0.328125zm5.7550964 0.46875q-0.484375 0.59375 -1.34375 0.59375q-0.796875 0 -1.21875 -0.453125q-0.40625 -0.453125 -0.421875 -1.34375l0 -3.21875l1.328125 0l0 3.171875q0 0.78125 0.6875 0.78125q0.671875 0 0.921875 -0.46875l0 -3.484375l1.328125 0l0 4.921875l-1.234375 0l-0.046875 -0.5zm3.6572418 0.5l-1.3125 0l0 -7.0l1.3125 0l0 7.0zm2.660736 -6.140625l0 1.21875l0.84375 0l0 0.953125l-0.84375 0l0 2.46875q0 0.265625 0.109375 0.390625q0.109375 0.109375 0.40625 0.109375q0.21875 0 0.375 -0.03125l0 1.0q-0.375 0.125 -0.796875 0.125q-1.375 0 -1.40625 -1.40625l0 -2.65625l-0.71875 0l0 -0.953125l0.71875 0l0 -1.21875l1.3125 0zm3.417511 4.28125l0.90625 -3.0625l1.421875 0l-1.984375 5.6875l-0.109375 0.265625q-0.4375 0.953125 -1.453125 0.953125q-0.296875 0 -0.59375 -0.078125l0 -1.0l0.203125 0q0.375 0 0.5625 -0.109375q0.1875 -0.109375 0.28125 -0.375l0.15625 -0.40625l-1.71875 -4.9375l1.421875 0l0.90625 3.0625z" fill-rule="nonzero"/></g></svg>